<?xml version="1.0" encoding="utf-8"?>
<!-- Generator: Adobe Illustrator 24.3.0, SVG Export Plug-In . SVG Version: 6.00 Build 0)  -->
<svg version="1.1" id="图层_1" xmlns="http://www.w3.org/2000/svg" xmlns:xlink="http://www.w3.org/1999/xlink" x="0px" y="0px"
	 viewBox="0 0 210 50" style="enable-background:new 0 0 210 50;" xml:space="preserve">
<style type="text/css">
	.st0{fill:#0052D9;}
	.st1{fill:#FFFFFF;}
	.st2{fill:url(#SVGID_1_);}
	.st3{fill:url(#SVGID_2_);}
	.st4{fill:url(#SVGID_3_);}
</style>
<g>
	<g>
		<g>
			<g>
				<path class="st0" d="M19.02,48c-0.21,0-8.43-3.73-13.83-9.15c-3.09-3.11-4.66-6.18-4.65-9.13L0.63,7.5L0.9,7.36
					C1.34,7.15,11.57,2.05,19.19,2c7.63,0.05,17.82,5.15,18.25,5.36l0.28,0.14l-0.09,22.22C37.6,39.72,19.2,48,19.02,48z
					 M3.97,29.72c-0.01,1.52,0.71,3.21,2.14,5.01c1.31,1.66,3.18,3.37,5.56,5.08c2.85,2.06,5.75,3.62,7.35,4.42
					c1.61-0.81,4.52-2.37,7.38-4.42c2.39-1.71,4.28-3.43,5.61-5.09c1.44-1.81,2.18-3.49,2.18-5.02l0.08-20.05
					c-1.02-0.46-2.52-1.1-4.25-1.75c-4.33-1.61-8.08-2.47-10.84-2.49C14.03,5.47,7.09,8.31,4.05,9.67L3.97,29.72z"/>
				<path class="st1" d="M19.2,2.5c7.59,0.05,18.03,5.31,18.03,5.31l-0.09,21.91C37.1,39.41,19.02,47.5,19.02,47.5
					c0,0-18.02-8.09-17.98-17.78L1.13,7.81C1.13,7.81,11.6,2.55,19.2,2.5 M19.03,44.8c1.54-0.76,4.63-2.39,7.67-4.57
					c2.43-1.74,4.35-3.49,5.71-5.18c1.51-1.9,2.29-3.69,2.29-5.33l0.08-20.37c-1.06-0.49-2.68-1.19-4.58-1.9
					c-4.38-1.63-8.19-2.5-11.02-2.52C13.78,4.97,6.52,8,3.56,9.35L3.47,29.72c-0.01,1.64,0.75,3.43,2.25,5.32
					c1.34,1.7,3.25,3.44,5.66,5.18C14.41,42.41,17.5,44.04,19.03,44.8 M19.2,1.5L19.2,1.5C11.45,1.55,1.12,6.7,0.68,6.92L0.13,7.19
					l0,0.61L0.04,29.71C0,39.93,17.85,48.07,18.61,48.41l0.41,0.18l0.41-0.18c0.76-0.34,18.67-8.49,18.71-18.69l0.09-21.91l0-0.62
					l-0.55-0.28C37.24,6.7,26.94,1.55,19.2,1.5L19.2,1.5L19.2,1.5z M4.55,10c3.14-1.39,9.73-4.03,14.64-4.06
					c2.69,0.02,6.38,0.87,10.66,2.46c1.56,0.58,2.93,1.16,3.93,1.6L33.7,29.71c-0.01,1.41-0.7,2.99-2.07,4.71
					c-1.3,1.62-3.15,3.31-5.51,4.99c-2.71,1.95-5.46,3.44-7.09,4.27c-1.62-0.83-4.36-2.32-7.06-4.27c-2.34-1.69-4.18-3.37-5.46-4.99
					c-1.35-1.71-2.04-3.29-2.03-4.7L4.55,10L4.55,10z"/>
			</g>
			<g>
				
					<linearGradient id="SVGID_1_" gradientUnits="userSpaceOnUse" x1="-149.6766" y1="24.7507" x2="-119.595" y2="24.7507" gradientTransform="matrix(1 0 0.1365 1 150.9934 0)">
					<stop  offset="0" style="stop-color:#73A7F4"/>
					<stop  offset="1" style="stop-color:#0052D9"/>
				</linearGradient>
				<path class="st2" d="M18.81,42.51c-1.58-0.83-3.95-2.17-6.29-3.86c-2.27-1.64-4.05-3.26-5.28-4.81
					c-1.2-1.52-1.84-2.95-1.83-4.12L5.48,10.6l0.3-0.13c1.8-0.77,3.57-1.44,5.26-1.99c3.25-1.06,5.99-1.6,8.13-1.62
					c2.61,0.02,6.18,0.85,10.35,2.4c1,0.37,2.01,0.78,3.02,1.21l0.3,0.13l-0.08,19.12c0,1.17-0.65,2.6-1.87,4.12
					c-1.24,1.56-3.03,3.18-5.32,4.82c-2.35,1.68-4.73,3.02-6.31,3.85l-0.23,0.12L18.81,42.51z"/>
				<path class="st1" d="M19.18,7.37c2.54,0.02,6.06,0.84,10.17,2.37c1.12,0.42,2.14,0.83,3,1.2l-0.08,18.79
					c0,1.06-0.61,2.38-1.76,3.81c-1.22,1.52-2.97,3.11-5.22,4.72c-2.31,1.65-4.64,2.97-6.25,3.82c-1.61-0.84-3.93-2.17-6.23-3.82
					c-2.23-1.61-3.98-3.2-5.18-4.72C6.5,32.1,5.9,30.78,5.91,29.72l0.08-18.78c1.44-0.61,3.25-1.33,5.21-1.97
					C14.4,7.92,17.09,7.38,19.18,7.37 M19.18,6.37L19.18,6.37c-2.2,0.02-4.99,0.57-8.29,1.65c-1.71,0.56-3.49,1.23-5.3,2l-0.6,0.26
					l0,0.66L4.91,29.71c-0.01,1.31,0.65,2.8,1.94,4.44c1.26,1.59,3.07,3.25,5.38,4.91c2.36,1.7,4.75,3.06,6.35,3.9l0.46,0.24
					l0.46-0.24c1.6-0.84,4-2.19,6.37-3.89c2.32-1.67,4.15-3.32,5.42-4.91c1.31-1.64,1.97-3.13,1.98-4.43l0.08-18.79l0-0.66
					l-0.61-0.26C31.72,9.58,30.7,9.17,29.7,8.8C25.48,7.23,21.84,6.39,19.18,6.37L19.18,6.37L19.18,6.37z"/>
			</g>
			<path class="st0" d="M25.81,37.85c1.5-1.2,3.73-3.1,4.64-4.25c1.15-1.43,1.8-2.78,1.8-3.84l0.04-8.57l-5.29-5.09l-9.65,0.38
				l-0.11,12.68l1.17,4.76L25.81,37.85z"/>
			
				<linearGradient id="SVGID_2_" gradientUnits="userSpaceOnUse" x1="-132.672" y1="20.2493" x2="-126.7694" y2="23.6222" gradientTransform="matrix(1 0 0.1365 1 150.9934 0)">
				<stop  offset="0" style="stop-color:#73A7F4"/>
				<stop  offset="1" style="stop-color:#0052D9"/>
			</linearGradient>
			<polygon class="st3" points="20.89,20.94 24.5,24.55 30.25,24.61 27.14,20.96 			"/>
			
				<linearGradient id="SVGID_3_" gradientUnits="userSpaceOnUse" x1="-135.9565" y1="32.2428" x2="-128.8675" y2="33.9108" gradientTransform="matrix(1 0 0.1365 1 150.9934 0)">
				<stop  offset="0" style="stop-color:#73A7F4"/>
				<stop  offset="1" style="stop-color:#0052D9"/>
			</linearGradient>
			<path class="st4" d="M18.49,33.95l7.35,3.92c0,0,3.79-3.01,5.25-5.15l-4.11-2.94L18.49,33.95z"/>
			<path class="st1" d="M11.1,16.2l-0.06,13.91l7.36,3.8l1.35,0.06L27,29.8l0.15-5.25h-6.14l-0.02,4.75h-3.48l0.05-12.41h3.36
				l-0.02,4.05h6.27l0.02-4.7l-3.15-2.58h-10.3C13.73,13.65,11.1,16.45,11.1,16.2z"/>
		</g>
	</g>
	<g>
		<path class="st1" d="M54.54,17.94v-4.71c-0.29,0.05-0.59,0.12-0.88,0.22v-1.33c1.28-0.78,2.13-1.99,2.58-3.61h2.36
			c-0.1,0.39-0.22,0.74-0.37,1.03h2.8V8.22h2.5v1.32h6.63v1.18h-6.63v1.18h6.63v1.18h-6.63v1.18h6.63v1.25h-6.63v1.25h6.63v1.18
			h-6.63v1.4h6.99v1.32h-3.09c0.54,1.37,1.59,2.31,3.17,2.8v1.47c-2.99-0.79-4.83-2.21-5.52-4.27h-1.55V25h-2.5v-4.34h-1.84
			c-0.74,2.06-2.58,3.48-5.52,4.27v-1.47c1.57-0.54,2.62-1.47,3.17-2.8h-3.02v-1.32h7.21v-1.4H54.54z M57.63,10.72
			c-0.1,0.2-0.29,0.49-0.59,0.88c-0.05,0.05-0.1,0.1-0.15,0.15v0.15h4.12v-1.18H57.63z M56.9,13.08v1.18h4.12v-1.18H56.9z
			 M56.9,15.51v1.25h4.12v-1.25H56.9z"/>
		<path class="st1" d="M81.22,24.71V8.74h15.9v13.32c0.05,1.81-0.86,2.7-2.72,2.65H81.22z M84.46,14.33v-1.47h5.74v-1.77h2.28v1.77
			h2.21v-2.5H83.65v12.96h9.94c0.78,0,1.15-0.39,1.1-1.18v-7.8h-2.21v5.52c0.05,1.67-0.74,2.48-2.36,2.43H88.5v-1.4h0.74
			c0.64,0,0.96-0.32,0.96-0.96v-5.59h-0.59c-0.44,3.63-2.16,6.26-5.15,7.88v-1.55c1.72-1.67,2.7-3.78,2.94-6.33H84.46z"/>
		<path class="st1" d="M107.75,16.83v-1.62h2.36v-1.99h2.5v1.99h7.51v-1.99h2.5v1.99h2.36v1.62h-2.5c-0.2,2.55-1.5,4.47-3.9,5.74
			c1.23,0.39,3.31,0.74,6.26,1.03v1.47c-3.68-0.44-6.5-1.01-8.47-1.69c-1.96,0.69-4.79,1.25-8.47,1.69v-1.47
			c2.85-0.25,4.93-0.59,6.26-1.03c-2.4-1.28-3.73-3.19-3.97-5.74H107.75z M108.48,12.71V9.55h6.48v-1.4h2.72v1.4h6.48v3.17h-2.36
			v-1.55h-10.89v1.55H108.48z M116.36,21.69c2.26-1.08,3.48-2.7,3.68-4.86h-7.43C112.8,18.99,114.05,20.61,116.36,21.69z"/>
		<path class="st1" d="M152.97,15.29c-3.78-1.13-6.67-2.77-8.69-4.93c-2.11,2.21-5.01,3.85-8.69,4.93v-1.47
			c3.34-1.37,5.77-3.31,7.29-5.82h2.8c1.57,2.55,4,4.49,7.29,5.82V15.29z M139.13,15.73v-1.62h10.38v1.62h-3.98v2.43h5.15v1.62
			h-5.15v3.17h6.7v1.4h-15.97v-1.4h6.7v-3.17h-5.08v-1.62h5.08v-2.43H139.13z"/>
		<path class="st1" d="M181.12,15.29c-0.25-0.1-0.61-0.22-1.1-0.37c-1.13-0.39-1.91-0.69-2.36-0.88v1.4h-10.6v-1.33
			c-1.18,0.44-2.33,0.84-3.46,1.18v-1.55c3.43-1.32,5.89-3.24,7.36-5.74h2.8c1.33,2.36,3.78,4.27,7.36,5.74V15.29z M165.88,24.78
			v-7.43h12.96v4.71c0.05,1.86-0.81,2.77-2.58,2.72H165.88z M172.36,10.36c-1.33,1.47-2.9,2.63-4.71,3.46h9.57
			C175.35,12.98,173.74,11.83,172.36,10.36z M168.24,23.24h7.14c0.74,0.05,1.08-0.37,1.03-1.25v-3.09h-8.17V23.24z"/>
		<path class="st1" d="M192.12,12.2v-1.47h1.99v-2.5h2.21v2.5h1.84v1.47h-1.84v3.17v0.29h2.13v1.55h-2.06
			c0.15,1.96,0.83,3.98,2.06,6.04v1.84c-1.57-1.33-2.65-2.87-3.24-4.64c-0.64,1.91-1.79,3.46-3.46,4.64v-1.77
			c1.42-2.06,2.18-4.1,2.28-6.11h-2.28v-1.55h2.36v-0.29V12.2H192.12z M198.74,25.15v-1.62c2.65-1.91,3.88-4.76,3.68-8.54v-3.31
			h2.06v3.24c0,1.03-0.07,1.99-0.22,2.87h0.81v4.64c-0.05,0.59,0.25,0.88,0.88,0.88h0.29c0.64,0,0.93-0.29,0.88-0.88v-0.59h1.55
			v0.88c0.05,1.37-0.69,2.04-2.21,1.99h-1.32c-1.42,0.05-2.11-0.66-2.06-2.13v-1.32C202.35,22.53,200.9,23.83,198.74,25.15z
			 M198.96,19.63V8.81h8.91v10.82h-1.99v-9.35h-4.93v9.35H198.96z"/>
		<g>
			<g>
				<path class="st1" d="M56.55,39.75c-0.84,0-1.56-0.3-2.11-0.86c-0.79-0.79-0.78-1.68-0.78-3.23c0-1.55-0.01-2.44,0.78-3.23
					c0.55-0.55,1.28-0.86,2.11-0.86c1.48,0,2.59,0.87,2.87,2.47h-1.24c-0.19-0.81-0.73-1.38-1.63-1.38c-0.47,0-0.9,0.18-1.19,0.49
					c-0.4,0.43-0.49,0.89-0.49,2.51c0,1.61,0.09,2.08,0.49,2.51c0.28,0.3,0.71,0.49,1.19,0.49c0.89,0,1.44-0.56,1.64-1.38h1.23
					C59.14,38.88,58,39.75,56.55,39.75z"/>
				<path class="st1" d="M64.62,39.08c-0.37,0.38-0.94,0.68-1.72,0.68c-0.78,0-1.33-0.29-1.7-0.68c-0.54-0.56-0.68-1.29-0.68-2.26
					c0-0.96,0.14-1.68,0.68-2.25c0.37-0.38,0.93-0.68,1.7-0.68c0.78,0,1.34,0.29,1.72,0.68c0.54,0.56,0.68,1.29,0.68,2.25
					C65.3,37.79,65.16,38.51,64.62,39.08z M63.75,35.25c-0.21-0.21-0.51-0.33-0.85-0.33s-0.62,0.11-0.84,0.33
					c-0.35,0.35-0.4,0.95-0.4,1.57c0,0.62,0.05,1.22,0.4,1.57c0.21,0.21,0.5,0.34,0.84,0.34s0.63-0.12,0.85-0.34
					c0.35-0.35,0.4-0.95,0.4-1.57C64.15,36.2,64.1,35.6,63.75,35.25z"/>
				<path class="st1" d="M69.89,35.31c-0.26-0.26-0.46-0.38-0.86-0.38c-0.62,0-1.14,0.5-1.14,1.29v3.48h-1.15v-5.72h1.13v0.62
					c0.29-0.41,0.88-0.69,1.52-0.69c0.55,0,0.97,0.15,1.37,0.54L69.89,35.31z"/>
				<path class="st1" d="M75.63,39.25c-0.32,0.32-0.81,0.51-1.39,0.51c-0.61,0-1.08-0.16-1.5-0.65V42h-1.15v-8.04h1.13v0.61
					c0.43-0.52,0.89-0.68,1.51-0.68c0.58,0,1.08,0.19,1.4,0.51c0.58,0.58,0.64,1.55,0.64,2.42S76.2,38.67,75.63,39.25z M73.94,34.92
					c-1.04,0-1.2,0.88-1.2,1.9c0,1.02,0.16,1.91,1.2,1.91s1.19-0.89,1.19-1.91C75.12,35.8,74.97,34.92,73.94,34.92z"/>
				<path class="st1" d="M81.54,39.08c-0.37,0.38-0.94,0.68-1.72,0.68c-0.78,0-1.33-0.29-1.7-0.68c-0.54-0.56-0.68-1.29-0.68-2.26
					c0-0.96,0.14-1.68,0.68-2.25c0.37-0.38,0.93-0.68,1.7-0.68c0.78,0,1.34,0.29,1.72,0.68c0.54,0.56,0.68,1.29,0.68,2.25
					C82.22,37.79,82.09,38.51,81.54,39.08z M80.68,35.25c-0.21-0.21-0.51-0.33-0.85-0.33c-0.34,0-0.62,0.11-0.84,0.33
					c-0.35,0.35-0.4,0.95-0.4,1.57c0,0.62,0.05,1.22,0.4,1.57c0.21,0.21,0.5,0.34,0.84,0.34c0.34,0,0.63-0.12,0.85-0.34
					c0.35-0.35,0.4-0.95,0.4-1.57C81.07,36.2,81.03,35.6,80.68,35.25z"/>
				<path class="st1" d="M86.82,35.31c-0.26-0.26-0.46-0.38-0.86-0.38c-0.62,0-1.14,0.5-1.14,1.29v3.48h-1.15v-5.72h1.13v0.62
					c0.29-0.41,0.88-0.69,1.52-0.69c0.55,0,0.97,0.15,1.37,0.54L86.82,35.31z"/>
				<path class="st1" d="M91.48,39.69v-0.52c-0.42,0.42-0.81,0.59-1.52,0.59c-0.71,0-1.19-0.17-1.54-0.52
					c-0.29-0.3-0.45-0.75-0.45-1.23c0-0.96,0.67-1.65,1.98-1.65h1.51v-0.41c0-0.72-0.36-1.07-1.25-1.07c-0.63,0-0.94,0.15-1.25,0.55
					l-0.76-0.71c0.54-0.63,1.11-0.82,2.05-0.82c1.57,0,2.36,0.67,2.36,1.96v3.83H91.48z M91.46,37.16h-1.34
					c-0.68,0-1.03,0.3-1.03,0.82c0,0.52,0.33,0.81,1.05,0.81c0.44,0,0.77-0.03,1.07-0.33c0.17-0.17,0.25-0.44,0.25-0.85V37.16z"/>
				<path class="st1" d="M95.97,39.69c-1.07,0-1.57-0.77-1.57-1.59v-3.15h-0.65v-0.88h0.65v-1.74h1.15v1.74h1.11v0.88h-1.11v3.09
					c0,0.42,0.2,0.67,0.63,0.67h0.47v0.98H95.97z"/>
				<path class="st1" d="M98.81,37.16c0,0.98,0.52,1.6,1.46,1.6c0.64,0,0.98-0.18,1.39-0.59l0.73,0.69
					c-0.59,0.59-1.14,0.89-2.14,0.89c-1.43,0-2.57-0.76-2.57-2.93c0-1.85,0.96-2.92,2.43-2.92c1.54,0,2.43,1.13,2.43,2.75v0.51
					H98.81z M101.22,35.58c-0.18-0.43-0.59-0.72-1.13-0.72c-0.54,0-0.96,0.29-1.14,0.72c-0.11,0.26-0.14,0.43-0.15,0.78h2.57
					C101.37,36.01,101.34,35.84,101.22,35.58z"/>
				<path class="st1" d="M109.8,39.75c-1.21,0-2.08-0.28-2.84-1.06l0.81-0.8c0.59,0.59,1.23,0.77,2.05,0.77
					c1.05,0,1.66-0.45,1.66-1.23c0-0.35-0.1-0.64-0.32-0.84c-0.2-0.19-0.41-0.27-0.88-0.34l-0.95-0.14
					c-0.65-0.09-1.17-0.32-1.52-0.64c-0.4-0.37-0.59-0.88-0.59-1.54c0-1.4,1.02-2.36,2.69-2.36c1.06,0,1.81,0.27,2.49,0.91
					l-0.78,0.77c-0.5-0.47-1.07-0.62-1.75-0.62c-0.95,0-1.47,0.54-1.47,1.25c0,0.29,0.09,0.55,0.3,0.75c0.2,0.18,0.53,0.32,0.9,0.37
					l0.91,0.14c0.75,0.11,1.16,0.29,1.5,0.6c0.44,0.38,0.65,0.96,0.65,1.65C112.69,38.87,111.48,39.75,109.8,39.75z"/>
				<path class="st1" d="M114.93,37.16c0,0.98,0.52,1.6,1.46,1.6c0.64,0,0.98-0.18,1.39-0.59l0.73,0.69
					c-0.59,0.59-1.14,0.89-2.14,0.89c-1.43,0-2.57-0.76-2.57-2.93c0-1.85,0.96-2.92,2.43-2.92c1.54,0,2.43,1.13,2.43,2.75v0.51
					H114.93z M117.34,35.58c-0.18-0.43-0.59-0.72-1.13-0.72c-0.54,0-0.96,0.29-1.14,0.72c-0.11,0.26-0.14,0.43-0.15,0.78h2.57
					C117.49,36.01,117.46,35.84,117.34,35.58z"/>
				<path class="st1" d="M122.31,39.75c-1.29,0-2.55-0.79-2.55-2.93s1.26-2.92,2.55-2.92c0.79,0,1.34,0.23,1.89,0.8l-0.79,0.77
					c-0.36-0.4-0.64-0.54-1.09-0.54c-0.44,0-0.81,0.18-1.06,0.51c-0.25,0.32-0.34,0.72-0.34,1.39s0.09,1.08,0.34,1.4
					c0.25,0.33,0.62,0.51,1.06,0.51c0.45,0,0.73-0.15,1.09-0.54l0.79,0.76C123.65,39.52,123.1,39.75,122.31,39.75z"/>
				<path class="st1" d="M128.87,39.69v-0.58c-0.4,0.43-0.95,0.64-1.52,0.64c-0.59,0-1.07-0.19-1.41-0.52
					c-0.44-0.43-0.58-0.97-0.58-1.61v-3.66h1.15v3.49c0,0.89,0.51,1.28,1.15,1.28c0.64,0,1.19-0.39,1.19-1.28v-3.49H130v5.72H128.87
					z"/>
				<path class="st1" d="M134.87,35.31c-0.26-0.26-0.46-0.38-0.86-0.38c-0.62,0-1.14,0.5-1.14,1.29v3.48h-1.15v-5.72h1.13v0.62
					c0.29-0.41,0.88-0.69,1.52-0.69c0.55,0,0.97,0.15,1.37,0.54L134.87,35.31z"/>
				<path class="st1" d="M136.53,32.83v-1.22h1.22v1.22H136.53z M136.56,39.69v-5.72h1.15v5.72H136.56z"/>
				<path class="st1" d="M141.13,39.69c-1.07,0-1.57-0.77-1.57-1.59v-3.15h-0.65v-0.88h0.65v-1.74h1.15v1.74h1.11v0.88h-1.11v3.09
					c0,0.42,0.2,0.67,0.63,0.67h0.47v0.98H141.13z"/>
				<path class="st1" d="M144.97,40.83c-0.11,0.32-0.25,0.54-0.42,0.71c-0.32,0.32-0.73,0.42-1.17,0.42h-0.46v-1.04h0.29
					c0.49,0,0.65-0.15,0.82-0.61l0.32-0.89l-2-5.45h1.22l1.37,4.03l1.33-4.03h1.23L144.97,40.83z"/>
				<path class="st1" d="M154.67,39.75c-0.84,0-1.56-0.3-2.11-0.86c-0.79-0.79-0.78-1.68-0.78-3.23c0-1.55-0.01-2.44,0.78-3.23
					c0.55-0.55,1.28-0.86,2.11-0.86c1.48,0,2.59,0.87,2.87,2.47h-1.24c-0.19-0.81-0.73-1.38-1.63-1.38c-0.47,0-0.9,0.18-1.19,0.49
					c-0.4,0.43-0.49,0.89-0.49,2.51c0,1.61,0.09,2.08,0.49,2.51c0.28,0.3,0.71,0.49,1.19,0.49c0.89,0,1.44-0.56,1.64-1.38h1.23
					C157.27,38.88,156.13,39.75,154.67,39.75z"/>
				<path class="st1" d="M162.75,39.08c-0.37,0.38-0.94,0.68-1.72,0.68c-0.78,0-1.33-0.29-1.7-0.68c-0.54-0.56-0.68-1.29-0.68-2.26
					c0-0.96,0.14-1.68,0.68-2.25c0.37-0.38,0.93-0.68,1.7-0.68c0.78,0,1.34,0.29,1.72,0.68c0.54,0.56,0.68,1.29,0.68,2.25
					C163.42,37.79,163.29,38.51,162.75,39.08z M161.88,35.25c-0.21-0.21-0.51-0.33-0.85-0.33c-0.34,0-0.62,0.11-0.84,0.33
					c-0.35,0.35-0.4,0.95-0.4,1.57c0,0.62,0.05,1.22,0.4,1.57c0.21,0.21,0.5,0.34,0.84,0.34c0.34,0,0.63-0.12,0.85-0.34
					c0.35-0.35,0.4-0.95,0.4-1.57C162.27,36.2,162.23,35.6,161.88,35.25z"/>
				<path class="st1" d="M171.85,39.69V36.2c0-0.89-0.51-1.28-1.15-1.28c-0.62,0-1.19,0.39-1.19,1.22v3.54h-1.15V36.2
					c0-0.89-0.51-1.28-1.15-1.28s-1.19,0.39-1.19,1.28v3.49h-1.15v-5.72H166v0.58c0.38-0.42,0.95-0.64,1.52-0.64
					c0.71,0,1.26,0.28,1.63,0.84c0.46-0.56,1.04-0.84,1.79-0.84c0.59,0,1.11,0.19,1.44,0.52c0.44,0.43,0.61,0.97,0.61,1.61v3.66
					H171.85z"/>
				<path class="st1" d="M178.7,39.25c-0.32,0.32-0.81,0.51-1.39,0.51c-0.61,0-1.08-0.16-1.5-0.65V42h-1.15v-8.04h1.13v0.61
					c0.43-0.52,0.89-0.68,1.51-0.68c0.58,0,1.08,0.19,1.4,0.51c0.58,0.58,0.64,1.55,0.64,2.42S179.28,38.67,178.7,39.25z
					 M177.01,34.92c-1.04,0-1.2,0.88-1.2,1.9c0,1.02,0.16,1.91,1.2,1.91c1.04,0,1.19-0.89,1.19-1.91
					C178.19,35.8,178.05,34.92,177.01,34.92z"/>
				<path class="st1" d="M182.33,39.69c-1.1,0-1.57-0.73-1.57-1.58v-6.46h1.15v6.39c0,0.44,0.16,0.67,0.62,0.67h0.51v0.98H182.33z"
					/>
				<path class="st1" d="M184.16,32.83v-1.22h1.22v1.22H184.16z M184.19,39.69v-5.72h1.15v5.72H184.19z"/>
				<path class="st1" d="M190.14,39.69v-0.52c-0.42,0.42-0.81,0.59-1.52,0.59s-1.19-0.17-1.54-0.52c-0.29-0.3-0.45-0.75-0.45-1.23
					c0-0.96,0.67-1.65,1.98-1.65h1.51v-0.41c0-0.72-0.36-1.07-1.25-1.07c-0.63,0-0.94,0.15-1.25,0.55l-0.76-0.71
					c0.54-0.63,1.11-0.82,2.05-0.82c1.57,0,2.36,0.67,2.36,1.96v3.83H190.14z M190.12,37.16h-1.34c-0.68,0-1.03,0.3-1.03,0.82
					c0,0.52,0.33,0.81,1.05,0.81c0.44,0,0.77-0.03,1.07-0.33c0.17-0.17,0.25-0.44,0.25-0.85V37.16z"/>
				<path class="st1" d="M196.42,39.69V36.2c0-0.89-0.51-1.28-1.15-1.28s-1.19,0.39-1.19,1.28v3.49h-1.15v-5.72h1.13v0.58
					c0.4-0.43,0.95-0.64,1.52-0.64c0.59,0,1.07,0.19,1.41,0.52c0.44,0.43,0.58,0.97,0.58,1.61v3.66H196.42z"/>
				<path class="st1" d="M201.49,39.75c-1.29,0-2.55-0.79-2.55-2.93s1.26-2.92,2.55-2.92c0.79,0,1.34,0.23,1.89,0.8l-0.79,0.77
					c-0.36-0.4-0.64-0.54-1.1-0.54c-0.44,0-0.81,0.18-1.06,0.51c-0.25,0.32-0.34,0.72-0.34,1.39s0.09,1.08,0.34,1.4
					c0.25,0.33,0.62,0.51,1.06,0.51c0.45,0,0.73-0.15,1.1-0.54l0.79,0.76C202.83,39.52,202.28,39.75,201.49,39.75z"/>
				<path class="st1" d="M205.25,37.16c0,0.98,0.52,1.6,1.46,1.6c0.64,0,0.98-0.18,1.39-0.59l0.73,0.69
					c-0.59,0.59-1.14,0.89-2.14,0.89c-1.43,0-2.57-0.76-2.57-2.93c0-1.85,0.96-2.92,2.43-2.92c1.54,0,2.43,1.13,2.43,2.75v0.51
					H205.25z M207.66,35.58c-0.18-0.43-0.59-0.72-1.13-0.72s-0.96,0.29-1.14,0.72c-0.11,0.26-0.14,0.43-0.15,0.78h2.57
					C207.81,36.01,207.77,35.84,207.66,35.58z"/>
			</g>
		</g>
	</g>
</g>
</svg>
